# xmcd CD database file
#
# Track frame offsets:
#	150
#	23797
#	45275
#	68487
#	92265
#	113752
#	134320
#	158725
#	182237
#	201792
#	219335
#	262193
#
# Disc length: 4167 seconds
#
# Revision: 10
# Processed by: cddbd v1.5.2PL0 Copyright (c) Steve Scherf et al.
# Submitted via: CDex 1.70beta3
#
DISCID=9910450c
DTITLE=荵・ソ晉伐蛻ゥ莨ク - LA繝サLA繝サLA LOVE THANG
DYEAR=1996
DGENRE=R&B
TTITLE0=ちょっとそこまで
TTITLE1=BODY-CATION
TTITLE2=Summer Eyes
TTITLE3=裏窓
TTITLE4=ＬＡ・ＬＡ・ＬＡ　ＬＯＶE　ＳＯＮＧ
TTITLE5=NOT TOO NICE
TTITLE6=シルクの愛が欲しくって
TTITLE7=What's The Wonder?
TTITLE8=CLUB PLANET
TTITLE9=虹のグランドスラム
TTITLE10=ＬＡ・ＬＡ・ＬＡ　ＬＯＶE　ＳＯＮＧ
TTITLE11=media track
EXTD=YEAR: 1996
EXTT0=
EXTT1=
EXTT2=
EXTT3=
EXTT4=
EXTT5=
EXTT6=
EXTT7=
EXTT8=
EXTT9=
EXTT10=
EXTT11=
PLAYORDER=
